<?xml version="1.0" encoding="utf-8"?>
<!-- Generator: Adobe Illustrator 16.0.0, SVG Export Plug-In . SVG Version: 6.00 Build 0)  -->
<!DOCTYPE svg PUBLIC "-//W3C//DTD SVG 1.1 Tiny//EN" "http://www.w3.org/Graphics/SVG/1.1/DTD/svg11-tiny.dtd">
<svg version="1.1" baseProfile="tiny" id="Layer_1" fill="white" xmlns="http://www.w3.org/2000/svg" xmlns:xlink="http://www.w3.org/1999/xlink"
	 x="0px" y="0px" width="24px" height="24px" viewBox="0 0 24 24" xml:space="preserve">
<g>
	<path d="M20.356,8.392H3.645c-0.931,0-1.688,0.756-1.688,1.686V21.7c0,0.929,0.757,1.685,1.688,1.685h16.712
		c0.929,0,1.686-0.756,1.686-1.685V10.078C22.042,9.148,21.285,8.392,20.356,8.392z M6.852,11.365L4.685,9.192H5.45l2.167,2.173
		H6.852z M8.746,11.365L6.579,9.192h0.787l2.167,2.173H8.746z M10.662,11.365L8.495,9.192h0.778l2.167,2.173H10.662z M12.57,11.365
		l-2.167-2.173h0.766l2.167,2.173H12.57z M14.465,11.365l-2.167-2.173h0.786l2.167,2.173H14.465z M16.38,11.365l-2.167-2.173h0.78
		l2.167,2.173H16.38z M18.289,11.365l-2.167-2.173h0.783l2.167,2.173H18.289z M20.202,11.365l-2.167-2.173h0.788l2.166,2.173H20.202
		z M21.241,10.078v0.407l-1.289-1.293h0.404C20.845,9.192,21.241,9.589,21.241,10.078z M3.57,9.207l2.151,2.158h-0.82L3.008,9.466
		C3.152,9.316,3.351,9.227,3.57,9.207z M2.758,10.349l1.014,1.016H2.758V10.349z M20.356,22.585H3.645
		c-0.489,0-0.887-0.397-0.887-0.885v-9.536h18.483V21.7C21.241,22.188,20.845,22.585,20.356,22.585z"/>
	<path d="M14.405,15.424l-3.842-2.011c-0.827-0.438-1.641,0.073-1.641,0.99v4.788c0,0.756,0.455,1.095,0.904,1.095
		c0.001,0,0.001,0,0.001,0c0.229,0,0.467-0.083,0.703-0.244l3.984-2.71c0.377-0.257,0.581-0.618,0.56-0.99
		C15.054,15.97,14.81,15.636,14.405,15.424z M14.065,16.67l-3.984,2.71c-0.139,0.095-0.224,0.105-0.253,0.105
		c-0.083,0-0.104-0.193-0.104-0.295v-4.788c0-0.164,0.036-0.358,0.211-0.358c0.051,0,0.137,0.013,0.257,0.077l3.843,2.012
		c0.145,0.076,0.237,0.173,0.242,0.255S14.2,16.578,14.065,16.67z"/>
	<path d="M2.206,6.633C2.33,7.22,2.855,7.646,3.456,7.646c0.088,0,0.177-0.009,0.263-0.027l17.144-3.623
		c0.333-0.07,0.619-0.267,0.806-0.553s0.25-0.627,0.18-0.958l-0.18-0.858c-0.145-0.672-0.837-1.127-1.514-0.983L3.011,4.265
		C2.322,4.41,1.88,5.088,2.025,5.776L2.206,6.633z M3.553,6.835C3.294,6.885,3.041,6.718,2.989,6.468l-0.04-0.19l0.793,0.518
		L3.553,6.835z M18.711,3.632l-0.766,0.162l-2.15-1.405l0.765-0.161L18.711,3.632z M17.666,1.995l0.771-0.163l2.148,1.404
		l-0.77,0.163L17.666,1.995z M16.841,4.027l-0.763,0.161l-2.152-1.406l0.764-0.161L16.841,4.027z M14.973,4.422l-0.769,0.163
		l-2.153-1.407l0.769-0.162L14.973,4.422z M13.099,4.818L12.35,4.977l-2.155-1.408l0.75-0.158L13.099,4.818z M11.244,5.21
		l-0.761,0.161L8.328,3.962l0.76-0.16L11.244,5.21z M9.378,5.604L8.609,5.767l-2.158-1.41l0.771-0.162L9.378,5.604z M7.504,6
		L6.756,6.159L4.597,4.748L5.346,4.59L7.504,6z M20.418,1.415c0.225,0,0.421,0.159,0.467,0.376l0.166,0.793l-1.507-0.985
		L20.418,1.415z M3.177,5.047l0.314-0.066L5.65,6.392l-0.803,0.17L2.871,5.271C2.938,5.161,3.044,5.075,3.177,5.047z"/>
</g>
</svg>
