<svg fill="white" id="icon" xmlns="http://www.w3.org/2000/svg" viewBox="0 0 512 512"><title>graph analytics</title><path d="M366.26,318.32a16.86,16.86,0,0,0-21.45-2L331.7,303.22a5.58,5.58,0,1,0-7.89,7.9L336.71,324,324,336.72l-23.08-23.08a163.67,163.67,0,0,0,54.64-122.12c0-90.45-73.59-164-164-164s-164,73.59-164,164A163.89,163.89,0,0,0,139.31,347.08a5.58,5.58,0,1,0,3.55-10.58,152.75,152.75,0,0,1-104.22-145c0-84.29,68.58-152.87,152.87-152.87s152.88,68.58,152.88,152.87S275.81,344.4,191.51,344.4c-2.94,0-5.9-.09-8.85-.26l4.74-8a5.59,5.59,0,0,0-9.62-5.68l-16.53,28a35.9,35.9,0,0,1-30.58,17.27H59.29a5.59,5.59,0,0,0,0,11.17h71.38a47.12,47.12,0,0,0,40.17-22.73l5.5-9.3c5,.46,10.11.7,15.17.7a163.24,163.24,0,0,0,100.83-34.72l24,24a16.88,16.88,0,0,0,2,21.44L426.65,474.61a33.91,33.91,0,0,0,48-47.95ZM466.7,466.71a22.78,22.78,0,0,1-32.16,0L326.2,358.37a5.71,5.71,0,0,1,0-8.06l24.1-24.1a5.7,5.7,0,0,1,8.06,0L466.7,434.55a22.74,22.74,0,0,1,0,32.16Z"/><path d="M110.42,98.78c-.64.56-1.27,1.13-1.9,1.7a5.58,5.58,0,1,0,7.53,8.24l1.73-1.54a5.58,5.58,0,0,0-7.36-8.4Z"/><path d="M92.13,128.37a5.59,5.59,0,0,0-7.62,2.07,123.09,123.09,0,1,0,56.17-51.16,5.58,5.58,0,1,0,4.61,10.17,111,111,0,0,1,46.22-10A112,112,0,1,1,94.2,136,5.59,5.59,0,0,0,92.13,128.37Z"/><path d="M57.3,450.81h63.29a5.59,5.59,0,0,0,0-11.17H57.3a5.59,5.59,0,0,0,0,11.17Z"/><path d="M140.22,417.8a5.58,5.58,0,0,0,0-11.16H109a5.58,5.58,0,1,0,0,11.16Z"/><path d="M57.3,417.8H89a5.58,5.58,0,0,0,0-11.16H57.3a5.58,5.58,0,1,0,0,11.16Z"/><path d="M256,255.69a5.58,5.58,0,0,0,5.58-5.58V129a5.58,5.58,0,0,0-5.58-5.58H230a5.58,5.58,0,0,0-5.58,5.58V250.11a5.58,5.58,0,0,0,5.58,5.58ZM235.54,134.57h14.88v110H235.54Z"/><path d="M202.56,255.69a5.58,5.58,0,0,0,5.58-5.58V166a5.58,5.58,0,0,0-5.58-5.59h-26a5.58,5.58,0,0,0-5.58,5.59v84.12a5.58,5.58,0,0,0,5.58,5.58Zm-20.45-84.12H197v73H182.11Z"/><path d="M117.5,250.11a5.58,5.58,0,0,0,5.58,5.58h26a5.58,5.58,0,0,0,5.58-5.58V198.38a5.58,5.58,0,0,0-5.58-5.58h-26a5.58,5.58,0,0,0-5.58,5.58ZM128.67,204h14.87v40.57H128.67Z"/></svg>