<?xml version="1.0" ?><svg id="Layer_1" fill='white' style="enable-background:new 0 0 65 65;" version="1.1" viewBox="0 0 65 65" xml:space="preserve" xmlns="http://www.w3.org/2000/svg" xmlns:xlink="http://www.w3.org/1999/xlink"><style type="text/css">

</style><g><path class="st0" d="M1.4,0.8C1,0.8,0.7,1.1,0.7,1.5v13c0,0.4,0.3,0.8,0.8,0.8s0.8-0.3,0.8-0.8v-13C2.2,1.1,1.8,0.8,1.4,0.8z"/><path class="st0" d="M1.4,17.8c-0.4,0-0.8,0.3-0.8,0.8v1c0,0.4,0.3,0.8,0.8,0.8s0.8-0.3,0.8-0.8v-1C2.2,18.1,1.8,17.8,1.4,17.8z"/><path class="st0" d="M46.6,2.3h17c0.4,0,0.8-0.3,0.8-0.8S64,0.8,63.6,0.8h-17c-0.4,0-0.8,0.3-0.8,0.8S46.2,2.3,46.6,2.3z"/><path class="st0" d="M39.6,2.3h3c0.4,0,0.8-0.3,0.8-0.8S43,0.8,42.6,0.8h-3c-0.4,0-0.8,0.3-0.8,0.8S39.2,2.3,39.6,2.3z"/><path class="st0" d="M63.4,60.8h-1.3v-1.3c0-0.4-0.3-0.8-0.8-0.8s-0.8,0.3-0.8,0.8v1.3h-1.3c-0.4,0-0.8,0.3-0.8,0.8   s0.3,0.8,0.8,0.8h1.3v1.3c0,0.4,0.3,0.8,0.8,0.8s0.8-0.3,0.8-0.8v-1.3h1.3c0.4,0,0.8-0.3,0.8-0.8S63.8,60.8,63.4,60.8z"/><path class="st0" d="M60.2,57.5v-12v-40c0-0.4-0.3-0.8-0.8-0.8h-54C5,4.8,4.7,5.1,4.7,5.5v40v12c0,0.4,0.3,0.8,0.8,0.8h54   C59.8,58.3,60.2,57.9,60.2,57.5z M58.7,56.8H6.2V46.3h37.3c0.4,0,0.8-0.3,0.8-0.8s-0.3-0.8-0.8-0.8H6.2V6.3h52.5v38.5h-9.3   c-0.4,0-0.8,0.3-0.8,0.8s0.3,0.8,0.8,0.8h9.3V56.8z"/><path class="st0" d="M32.4,10.8c-8.1,0-14.8,6.6-14.8,14.8s6.6,14.8,14.8,14.8s14.8-6.6,14.8-14.8S40.6,10.8,32.4,10.8z M32.4,38.8   c-7.3,0-13.3-5.9-13.3-13.3s5.9-13.3,13.3-13.3s13.3,5.9,13.3,13.3S39.7,38.8,32.4,38.8z"/><path class="st0" d="M20.4,47.8c-1.8,0-3.3,1.3-3.7,3h-6c-0.4,0-0.8,0.3-0.8,0.8s0.3,0.8,0.8,0.8h6c0.3,1.7,1.9,3,3.7,3   s3.3-1.3,3.7-3h30.3c0.4,0,0.8-0.3,0.8-0.8s-0.3-0.8-0.8-0.8H24.1C23.8,49,22.2,47.8,20.4,47.8z M20.4,53.8c-1.2,0-2.3-1-2.3-2.3   s1-2.3,2.3-2.3s2.3,1,2.3,2.3S21.7,53.8,20.4,53.8z"/><path class="st0" d="M29.8,18.9c-0.2-0.2-0.5-0.2-0.8,0c-0.2,0.1-0.4,0.4-0.4,0.7v12c0,0.3,0.2,0.5,0.4,0.7   c0.1,0.1,0.2,0.1,0.4,0.1c0.1,0,0.3,0,0.4-0.1l9.1-6c0.2-0.1,0.3-0.4,0.3-0.6s-0.1-0.5-0.3-0.6L29.8,18.9z M30.2,30.1v-9.2l7,4.6   L30.2,30.1z"/><path class="st0" d="M46.7,44.8c-0.2-0.1-0.4-0.1-0.6,0c-0.1,0-0.2,0.1-0.2,0.2s-0.1,0.2-0.2,0.2s-0.1,0.2-0.1,0.3   c0,0.2,0.1,0.4,0.2,0.5c0.1,0.1,0.2,0.1,0.2,0.2c0.1,0,0.2,0.1,0.3,0.1c0.1,0,0.2,0,0.3-0.1s0.2-0.1,0.2-0.2   c0.1-0.1,0.2-0.3,0.2-0.5c0-0.1,0-0.2-0.1-0.3S47,45,47,45C46.9,44.9,46.8,44.8,46.7,44.8z"/></g></svg>